/* XPM */
static char * icon_P_xpm[] = {
"12 12 21 1",
" 	c None",
".	c #FCFFBF",
"+	c #5B5C45",
"@	c #545540",
"#	c #696A50",
"$	c #BDC08F",
"%	c #D9DCA4",
"&	c #464735",
"*	c #8C8E6A",
"=	c #D2D49F",
"-	c #AFB184",
";	c #151510",
">	c #A8AA7F",
",	c #77785A",
"'	c #F5F8BA",
")	c #38392A",
"!	c #77795A",
"~	c #1C1C15",
"{	c #2A2A20",
"]	c #23241A",
"^	c #E7EAAF",
"   ......   ",
"  ........  ",
" ..+@@@#$.. ",
"...%&*=-;-..",
"....@>..,@..",
"....@>.')!..",
"....@~{]#'..",
"....@>......",
"....@>......",
" ..){{{^... ",
"  ........  ",
"   ......   "};
