/* XPM */
static char * icon_H_xpm[] = {
"12 12 17 1",
" 	c None",
".	c #BFDAFE",
"+	c #8598B0",
"@	c #404854",
"#	c #5A6778",
"$	c #AFC8E9",
"%	c #B4CEF0",
"&	c #353C46",
"*	c #6A798D",
"=	c #AAC2E2",
"-	c #7F91A9",
";	c #606D7F",
">	c #20242A",
",	c #546070",
"'	c #2A3038",
")	c #7A8BA2",
"!	c #454E5C",
"   ......   ",
"  ........  ",
" .+@@+#@@$. ",
"..%&*%=&*...",
"...@-..@-...",
"...@@;;>-...",
"...@,--'-...",
"...@-..@-...",
"...@-..@-...",
" .)>>)!>>$. ",
"  ........  ",
"   ......   "};
